# Blender v2.83.19 Release Candidate OBJ File: 'untitled.blend'
# www.blender.org
mtllib Stool.mtl
o Mesh_0017_Mesh_0017Mesh
v 0.843762 0.113444 -0.951403
v 0.843762 0.129336 -0.951403
v 0.832140 0.113444 -0.934003
v 0.832140 0.145229 -0.934003
v 0.852477 0.129336 -0.964440
v 0.852477 0.145229 -0.964440
v 0.865517 0.129336 -0.973155
v 0.882914 0.145229 -0.984777
v 0.865517 0.113444 -0.973155
v 0.882914 0.113444 -0.984777
v 0.918817 0.113444 -0.991919
v 0.918817 0.145229 -0.991919
v 0.954720 0.113444 -0.984777
v 0.954720 0.145229 -0.984777
v 1.005495 0.113444 -0.934003
v 1.005495 0.145229 -0.934003
v 1.012637 0.113444 -0.898100
v 1.012637 0.145229 -0.898100
v 1.005495 0.113444 -0.862196
v 1.005495 0.145229 -0.862196
v 0.993873 0.113444 -0.844796
v 0.993873 0.129336 -0.844796
v 0.985158 0.129336 -0.831759
v 0.985158 0.145229 -0.831759
v 0.972121 0.129336 -0.823044
v 0.954720 0.145229 -0.811422
v 0.972121 0.113444 -0.823044
v 0.954720 0.113444 -0.811422
v 0.918817 0.113444 -0.804280
v 0.918817 0.145229 -0.804280
v 0.882914 0.113444 -0.811422
v 0.882914 0.145229 -0.811422
v 0.867696 0.113444 -0.823044
v 0.867696 0.129336 -0.823044
v 0.824998 0.145229 -0.898100
v 0.824998 0.113444 -0.898100
v 0.832140 0.145229 -0.862197
v 0.832140 0.113444 -0.862197
v 0.843762 0.129336 -0.844796
v 0.843762 0.113444 -0.844796
v 0.972121 0.113444 -0.973155
v 0.972121 0.129336 -0.973155
v 0.985158 0.129336 -0.964440
v 0.985158 0.145229 -0.964440
v 0.993873 0.129336 -0.951403
v 0.993873 0.113444 -0.951403
v 0.852477 0.145229 -0.831759
v 0.852477 0.129336 -0.831759
v 0.882914 0.145229 -0.811422
v 0.918817 0.145229 -0.804280
v 0.852477 0.145229 -0.831759
v 0.954720 0.145229 -0.811422
v 0.832140 0.145229 -0.862197
v 0.985158 0.145229 -0.831759
v 0.824998 0.145229 -0.898100
v 1.005495 0.145229 -0.862196
v 0.832140 0.145229 -0.934003
v 1.012637 0.145229 -0.898100
v 0.852477 0.145229 -0.964440
v 1.005495 0.145229 -0.934003
v 0.882914 0.145229 -0.984777
v 0.985158 0.145229 -0.964440
v 0.918817 0.145229 -0.991919
v 0.954720 0.145229 -0.984777
v 0.918242 0.021802 -0.830308
v 0.893806 0.021802 -0.835168
v 0.918242 0.053282 -0.830308
v 0.893806 0.053282 -0.835168
v 0.873090 0.021802 -0.849010
v 0.873090 0.053282 -0.849010
v 0.859248 0.021802 -0.869726
v 0.859248 0.053282 -0.869726
v 0.854388 0.021802 -0.894161
v 0.854388 0.053282 -0.894161
v 0.859248 0.021802 -0.918597
v 0.859248 0.053282 -0.918597
v 0.873090 0.021802 -0.939313
v 0.873090 0.053282 -0.939313
v 0.893806 0.021802 -0.953155
v 0.893806 0.053282 -0.953155
v 0.918242 0.021802 -0.958015
v 0.918242 0.053282 -0.958015
v 0.942677 0.021802 -0.953155
v 0.942677 0.053282 -0.953155
v 0.963393 0.021802 -0.939313
v 0.963393 0.053282 -0.939313
v 0.977235 0.021802 -0.918597
v 0.977235 0.053282 -0.918597
v 0.982095 0.021802 -0.894161
v 0.982095 0.053282 -0.894161
v 0.977235 0.021802 -0.869726
v 0.977235 0.053282 -0.869726
v 0.963393 0.021802 -0.849010
v 0.963393 0.053282 -0.849010
v 0.942677 0.021802 -0.835168
v 0.942677 0.053282 -0.835168
v 0.918242 0.021802 -0.830308
v 0.918242 0.053282 -0.830308
v 0.918242 0.095256 -0.875917
v 0.918242 0.063776 -0.857674
v 0.925223 0.095256 -0.877306
v 0.932205 0.063776 -0.860451
v 0.931142 0.095256 -0.881261
v 0.944042 0.063776 -0.868361
v 0.935097 0.095256 -0.887180
v 0.951952 0.063776 -0.880198
v 0.936486 0.095256 -0.894161
v 0.954729 0.063776 -0.894161
v 0.935097 0.095256 -0.901143
v 0.951952 0.063776 -0.908125
v 0.931142 0.095256 -0.907062
v 0.944042 0.063776 -0.919962
v 0.925223 0.095256 -0.911017
v 0.932205 0.063776 -0.927872
v 0.918242 0.095256 -0.912405
v 0.918242 0.063776 -0.930649
v 0.911260 0.095256 -0.911017
v 0.904278 0.063776 -0.927872
v 0.905341 0.095256 -0.907062
v 0.892441 0.063776 -0.919962
v 0.901386 0.095256 -0.901143
v 0.884531 0.063776 -0.908125
v 0.899998 0.095256 -0.894161
v 0.881754 0.063776 -0.894161
v 0.901386 0.095256 -0.887180
v 0.884531 0.063776 -0.880198
v 0.905341 0.095256 -0.881261
v 0.892441 0.063776 -0.868361
v 0.911260 0.095256 -0.877306
v 0.904278 0.063776 -0.860451
v 0.918242 0.095256 -0.875917
v 0.918242 0.063776 -0.857674
v 0.918242 0.137230 -0.880478
v 0.923478 0.137230 -0.881520
v 0.927917 0.137230 -0.884486
v 0.930883 0.137230 -0.888925
v 0.931925 0.137230 -0.894161
v 0.930883 0.137230 -0.899398
v 0.927917 0.137230 -0.903837
v 0.923478 0.137230 -0.906803
v 0.918242 0.137230 -0.907844
v 0.913005 0.137230 -0.906803
v 0.908566 0.137230 -0.903837
v 0.905600 0.137230 -0.899398
v 0.904559 0.137230 -0.894161
v 0.905600 0.137230 -0.888925
v 0.908566 0.137230 -0.884486
v 0.913005 0.137230 -0.881520
v 0.918242 0.137230 -0.880478
v 0.918242 0.053282 -0.830308
v 0.942677 0.053282 -0.835168
v 0.963393 0.053282 -0.849010
v 0.977235 0.053282 -0.869726
v 0.982095 0.053282 -0.894161
v 0.977235 0.053282 -0.918597
v 0.963393 0.053282 -0.939313
v 0.942677 0.053282 -0.953155
v 0.918242 0.053282 -0.958015
v 0.893806 0.053282 -0.953155
v 0.873090 0.053282 -0.939313
v 0.859248 0.053282 -0.918597
v 0.854388 0.053282 -0.894161
v 0.859248 0.053282 -0.869726
v 0.873090 0.053282 -0.849010
v 0.893806 0.053282 -0.835168
v 0.918242 0.053282 -0.830308
vt 0.734527 0.881429
vt 0.734527 0.881429
vt 0.762344 0.839782
vt 0.762344 0.839782
vt 0.713668 0.912632
vt 0.713668 0.912632
vt 0.682457 0.933491
vt 0.640818 0.961308
vt 0.682457 0.933491
vt 0.640818 0.961308
vt 0.554887 0.978401
vt 0.554887 0.978401
vt 0.468955 0.961309
vt 0.468955 0.961309
vt 0.347429 0.839783
vt 0.330336 0.753851
vt 0.347429 0.839783
vt 0.330336 0.753851
vt 0.347429 0.667919
vt 0.347429 0.667919
vt 0.375246 0.626273
vt 0.375246 0.626273
vt 0.396106 0.595070
vt 0.396106 0.595070
vt 0.427308 0.574211
vt 0.468955 0.546394
vt 0.427308 0.574211
vt 0.468955 0.546394
vt 0.554887 0.529301
vt 0.554887 0.529301
vt 0.640818 0.546393
vt 0.640818 0.546393
vt 0.677243 0.574211
vt 0.677243 0.574211
vt 0.779437 0.753851
vt 0.779437 0.753851
vt 0.762344 0.667919
vt 0.762344 0.667919
vt 0.734527 0.626273
vt 0.734527 0.626273
vt 0.427309 0.933491
vt 0.427309 0.933491
vt 0.396106 0.912632
vt 0.396106 0.912632
vt 0.375246 0.881429
vt 0.375246 0.881429
vt 0.713668 0.595070
vt 0.713668 0.595070
vt 0.640818 0.546393
vt 0.713668 0.595070
vt 0.554887 0.529301
vt 0.468955 0.546394
vt 0.762344 0.667919
vt 0.396106 0.595070
vt 0.779437 0.753851
vt 0.347429 0.667919
vt 0.762344 0.839782
vt 0.330336 0.753851
vt 0.713668 0.912632
vt 0.347429 0.839783
vt 0.640818 0.961308
vt 0.396106 0.912632
vt 0.554887 0.978401
vt 0.468955 0.961309
vt 0.682239 0.407806
vt 0.682239 0.387599
vt 0.601411 0.407806
vt 0.601411 0.387599
vt 0.682239 0.367392
vt 0.601411 0.367392
vt 0.682239 0.347185
vt 0.601411 0.347185
vt 0.682239 0.326977
vt 0.601411 0.326977
vt 0.682239 0.306770
vt 0.601411 0.306770
vt 0.682239 0.286563
vt 0.601411 0.286563
vt 0.682239 0.266356
vt 0.601411 0.266356
vt 0.682239 0.246149
vt 0.601411 0.246149
vt 0.682239 0.225942
vt 0.601411 0.225942
vt 0.682239 0.205735
vt 0.601411 0.205735
vt 0.682239 0.185528
vt 0.601411 0.185528
vt 0.682239 0.165320
vt 0.601411 0.165320
vt 0.682239 0.145113
vt 0.601411 0.145113
vt 0.682239 0.124906
vt 0.601411 0.124906
vt 0.682239 0.104699
vt 0.601411 0.104699
vt 0.682239 0.084492
vt 0.601411 0.084492
vt 0.439754 0.084492
vt 0.439754 0.104699
vt 0.520582 0.084492
vt 0.520582 0.104699
vt 0.439754 0.124906
vt 0.520582 0.124906
vt 0.439754 0.145113
vt 0.520582 0.145113
vt 0.439754 0.165320
vt 0.520582 0.165320
vt 0.439754 0.185528
vt 0.520582 0.185528
vt 0.439754 0.205735
vt 0.520582 0.205735
vt 0.439754 0.225942
vt 0.520582 0.225942
vt 0.439754 0.246149
vt 0.520582 0.246149
vt 0.439754 0.266356
vt 0.520582 0.266356
vt 0.439754 0.286563
vt 0.520582 0.286563
vt 0.439754 0.306770
vt 0.520582 0.306770
vt 0.439754 0.326977
vt 0.520582 0.326977
vt 0.439754 0.347185
vt 0.520582 0.347185
vt 0.439754 0.367392
vt 0.520582 0.367392
vt 0.439754 0.387599
vt 0.520582 0.387599
vt 0.439754 0.407806
vt 0.520582 0.407806
vt 0.358926 0.084492
vt 0.358926 0.104699
vt 0.358926 0.124906
vt 0.358926 0.145113
vt 0.358926 0.165320
vt 0.358926 0.185528
vt 0.358926 0.205735
vt 0.358926 0.225942
vt 0.358926 0.246149
vt 0.358926 0.266356
vt 0.358926 0.286563
vt 0.358926 0.306770
vt 0.358926 0.326977
vt 0.358926 0.347185
vt 0.358926 0.367392
vt 0.358926 0.387599
vt 0.358926 0.407806
vt 0.601411 0.084492
vt 0.601411 0.104699
vt 0.601411 0.124906
vt 0.601411 0.145113
vt 0.601411 0.165320
vt 0.601411 0.185528
vt 0.601411 0.205735
vt 0.601411 0.225942
vt 0.601411 0.246149
vt 0.601411 0.266356
vt 0.601411 0.286563
vt 0.601411 0.306770
vt 0.601411 0.326977
vt 0.601411 0.347185
vt 0.601411 0.367392
vt 0.601411 0.387599
vt 0.601411 0.407806
vn 0.8315 0.0000 0.5554
vn 0.8314 -0.0003 0.5556
vn 0.9239 0.0000 0.3826
vn 0.7071 -0.0001 0.7071
vn 0.7071 0.0000 0.7071
vn 0.5555 -0.0000 0.8315
vn 0.3826 0.0000 0.9239
vn 0.0000 0.0000 1.0000
vn -0.3826 0.0000 0.9239
vn -0.9239 0.0000 0.3826
vn -1.0000 0.0000 0.0000
vn -0.9239 0.0000 -0.3826
vn -0.8315 0.0000 -0.5554
vn -0.8314 -0.0002 -0.5556
vn -0.7071 -0.0001 -0.7070
vn -0.7071 -0.0000 -0.7071
vn -0.5555 -0.0001 -0.8315
vn -0.3826 -0.0000 -0.9239
vn -0.5554 0.0000 -0.8315
vn 0.0000 0.0000 -1.0000
vn 0.4116 0.0000 -0.9113
vn 0.3988 0.0172 -0.9168
vn 0.6069 0.0000 -0.7947
vn 0.5716 0.0276 -0.8201
vn 1.0000 0.0000 0.0000
vn 0.9239 -0.0000 -0.3826
vn 0.8315 -0.0001 -0.5555
vn 0.8315 0.0000 -0.5554
vn -0.5554 0.0000 0.8315
vn -0.5556 -0.0003 0.8314
vn -0.7070 -0.0001 0.7071
vn -0.7071 -0.0000 0.7071
vn -0.8315 -0.0001 0.5555
vn -0.8315 0.0000 0.5554
vn 0.6939 0.0182 -0.7198
vn 0.6822 0.0000 -0.7311
vn 0.0000 -1.0000 0.0000
vn 0.1951 0.0000 -0.9808
vn 0.3827 0.0000 -0.9239
vn 0.7071 0.0000 -0.7071
vn 0.9239 0.0000 -0.3827
vn 0.9239 0.0000 0.3827
vn 0.3827 0.0000 0.9239
vn -0.3827 0.0000 0.9239
vn -0.9239 0.0000 0.3827
vn -0.9239 0.0000 -0.3827
vn -0.3827 0.0000 -0.9239
vn -0.1951 0.0000 -0.9808
vn -0.1852 -0.3138 -0.9312
vn -0.3626 -0.3193 -0.8755
vn -0.1230 -0.7760 -0.6185
vn -0.2385 -0.7820 -0.5759
vn -0.6701 -0.3193 -0.6701
vn -0.4407 -0.7820 -0.4407
vn -0.8755 -0.3193 -0.3626
vn -0.5759 -0.7819 -0.2385
vn -0.9476 -0.3193 0.0000
vn -0.6233 -0.7820 0.0000
vn -0.8755 -0.3193 0.3626
vn -0.5759 -0.7820 0.2385
vn -0.6701 -0.3193 0.6701
vn -0.4407 -0.7820 0.4407
vn -0.3626 -0.3193 0.8755
vn -0.2385 -0.7820 0.5759
vn 0.0000 -0.3193 0.9476
vn 0.0000 -0.7819 0.6233
vn 0.3626 -0.3193 0.8755
vn 0.2385 -0.7820 0.5759
vn 0.6701 -0.3193 0.6701
vn 0.4407 -0.7820 0.4407
vn 0.8755 -0.3193 0.3626
vn 0.5759 -0.7820 0.2385
vn 0.9476 -0.3193 0.0000
vn 0.6233 -0.7820 0.0000
vn 0.8755 -0.3193 -0.3626
vn 0.5759 -0.7820 -0.2385
vn 0.6701 -0.3193 -0.6701
vn 0.4407 -0.7820 -0.4407
vn 0.3626 -0.3193 -0.8755
vn 0.2385 -0.7820 -0.5759
vn 0.1852 -0.3138 -0.9312
vn 0.1230 -0.7760 -0.6185
vn -0.1940 -0.1060 -0.9752
vn -0.3804 -0.1080 -0.9185
vn -0.7030 -0.1080 -0.7030
vn -0.9185 -0.1080 -0.3804
vn -0.9941 -0.1080 0.0000
vn -0.9185 -0.1080 0.3804
vn -0.7030 -0.1080 0.7030
vn -0.3804 -0.1080 0.9185
vn 0.0000 -0.1080 0.9941
vn 0.3804 -0.1080 0.9185
vn 0.7030 -0.1080 0.7029
vn 0.9185 -0.1080 0.3804
vn 0.9941 -0.1080 0.0000
vn 0.9185 -0.1080 -0.3804
vn 0.7030 -0.1080 -0.7029
vn 0.3804 -0.1080 -0.9185
vn 0.1940 -0.1060 -0.9752
vn -0.0710 -0.9313 -0.3571
vn -0.1370 -0.9337 -0.3308
vn -0.2532 -0.9337 -0.2532
vn -0.3308 -0.9337 -0.1370
vn -0.3580 -0.9337 0.0000
vn -0.3308 -0.9337 0.1370
vn -0.2532 -0.9337 0.2532
vn -0.1370 -0.9337 0.3308
vn 0.0000 -0.9337 0.3580
vn 0.1370 -0.9337 0.3308
vn 0.2532 -0.9337 0.2532
vn 0.3308 -0.9337 0.1370
vn 0.3580 -0.9337 0.0000
vn 0.3308 -0.9337 -0.1370
vn 0.2532 -0.9337 -0.2532
vn 0.1370 -0.9337 -0.3308
vn 0.0710 -0.9313 -0.3571
usemtl stool
s 1
f 1/1/1 2/2/2 3/3/3
f 3/3/3 2/2/2 4/4/3
f 2/2/2 5/5/4 4/4/3
f 4/4/3 5/5/4 6/6/5
f 5/5/4 7/7/6 6/6/5
f 6/6/5 7/7/6 8/8/7
f 7/7/6 9/9/6 8/8/7
f 8/8/7 9/9/6 10/10/7
f 10/10/7 11/11/8 8/8/7
f 8/8/7 11/11/8 12/12/8
f 11/11/8 13/13/9 12/12/8
f 12/12/8 13/13/9 14/14/9
f 15/15/10 17/16/11 16/17/10
f 16/17/10 17/16/11 18/18/11
f 17/16/11 19/19/12 18/18/11
f 18/18/11 19/19/12 20/20/12
f 21/21/13 22/22/14 19/19/12
f 19/19/12 22/22/14 20/20/12
f 22/22/14 23/23/15 20/20/12
f 20/20/12 23/23/15 24/24/16
f 23/23/15 25/25/17 24/24/16
f 24/24/16 25/25/17 26/26/18
f 25/25/17 27/27/19 26/26/18
f 26/26/18 27/27/19 28/28/18
f 28/28/18 29/29/20 26/26/18
f 26/26/18 29/29/20 30/30/20
f 29/29/20 31/31/21 30/30/20
f 30/30/20 31/31/21 32/32/22
f 31/31/21 33/33/23 32/32/22
f 32/32/22 33/33/23 34/34/24
f 4/4/3 35/35/25 3/3/3
f 3/3/3 35/35/25 36/36/25
f 35/35/25 37/37/26 36/36/25
f 36/36/25 37/37/26 38/38/26
f 37/37/26 39/39/27 38/38/26
f 38/38/26 39/39/27 40/40/28
f 41/41/29 42/42/30 13/13/9
f 13/13/9 42/42/30 14/14/9
f 42/42/30 43/43/31 14/14/9
f 14/14/9 43/43/31 44/44/32
f 43/43/31 45/45/33 44/44/32
f 44/44/32 45/45/33 16/17/10
f 45/45/33 46/46/34 16/17/10
f 16/17/10 46/46/34 15/15/10
f 37/37/26 47/47/35 39/39/27
f 39/39/27 47/47/35 48/48/36
f 47/47/35 34/34/24 48/48/36
f 47/47/35 32/32/22 34/34/24
f 49/49/37 51/50/37 50/51/37
f 50/51/37 51/50/37 52/52/37
f 51/50/37 53/53/37 52/52/37
f 52/52/37 53/53/37 54/54/37
f 53/53/37 55/55/37 54/54/37
f 54/54/37 55/55/37 56/56/37
f 55/55/37 57/57/37 56/56/37
f 56/56/37 57/57/37 58/58/37
f 57/57/37 59/59/37 58/58/37
f 58/58/37 59/59/37 60/60/37
f 59/59/37 61/61/37 60/60/37
f 60/60/37 61/61/37 62/62/37
f 61/61/37 63/63/37 62/62/37
f 62/62/37 63/63/37 64/64/37
f 65/65/38 66/66/39 67/67/38
f 67/67/38 66/66/39 68/68/39
f 66/66/39 69/69/40 68/68/39
f 68/68/39 69/69/40 70/70/40
f 69/69/40 71/71/41 70/70/40
f 70/70/40 71/71/41 72/72/41
f 71/71/41 73/73/25 72/72/41
f 72/72/41 73/73/25 74/74/25
f 73/73/25 75/75/42 74/74/25
f 74/74/25 75/75/42 76/76/42
f 75/75/42 77/77/5 76/76/42
f 76/76/42 77/77/5 78/78/5
f 77/77/5 79/79/43 78/78/5
f 78/78/5 79/79/43 80/80/43
f 79/79/43 81/81/8 80/80/43
f 80/80/43 81/81/8 82/82/8
f 81/81/8 83/83/44 82/82/8
f 82/82/8 83/83/44 84/84/44
f 83/83/44 85/85/32 84/84/44
f 84/84/44 85/85/32 86/86/32
f 85/85/32 87/87/45 86/86/32
f 86/86/32 87/87/45 88/88/45
f 87/87/45 89/89/11 88/88/45
f 88/88/45 89/89/11 90/90/11
f 89/89/11 91/91/46 90/90/11
f 90/90/11 91/91/46 92/92/46
f 91/91/46 93/93/16 92/92/46
f 92/92/46 93/93/16 94/94/16
f 93/93/16 95/95/47 94/94/16
f 94/94/16 95/95/47 96/96/47
f 95/95/47 97/97/48 96/96/47
f 96/96/47 97/97/48 98/98/48
f 99/99/49 101/100/50 100/101/51
f 100/101/51 101/100/50 102/102/52
f 101/100/50 103/103/53 102/102/52
f 102/102/52 103/103/53 104/104/54
f 103/103/53 105/105/55 104/104/54
f 104/104/54 105/105/55 106/106/56
f 105/105/55 107/107/57 106/106/56
f 106/106/56 107/107/57 108/108/58
f 107/107/57 109/109/59 108/108/58
f 108/108/58 109/109/59 110/110/60
f 109/109/59 111/111/61 110/110/60
f 110/110/60 111/111/61 112/112/62
f 111/111/61 113/113/63 112/112/62
f 112/112/62 113/113/63 114/114/64
f 113/113/63 115/115/65 114/114/64
f 114/114/64 115/115/65 116/116/66
f 115/115/65 117/117/67 116/116/66
f 116/116/66 117/117/67 118/118/68
f 117/117/67 119/119/69 118/118/68
f 118/118/68 119/119/69 120/120/70
f 119/119/69 121/121/71 120/120/70
f 120/120/70 121/121/71 122/122/72
f 121/121/71 123/123/73 122/122/72
f 122/122/72 123/123/73 124/124/74
f 123/123/73 125/125/75 124/124/74
f 124/124/74 125/125/75 126/126/76
f 125/125/75 127/127/77 126/126/76
f 126/126/76 127/127/77 128/128/78
f 127/127/77 129/129/79 128/128/78
f 128/128/78 129/129/79 130/130/80
f 129/129/79 131/131/81 130/130/80
f 130/130/80 131/131/81 132/132/82
f 133/133/83 134/134/84 99/99/49
f 99/99/49 134/134/84 101/100/50
f 134/134/84 135/135/85 101/100/50
f 101/100/50 135/135/85 103/103/53
f 135/135/85 136/136/86 103/103/53
f 103/103/53 136/136/86 105/105/55
f 136/136/86 137/137/87 105/105/55
f 105/105/55 137/137/87 107/107/57
f 137/137/87 138/138/88 107/107/57
f 107/107/57 138/138/88 109/109/59
f 138/138/88 139/139/89 109/109/59
f 109/109/59 139/139/89 111/111/61
f 139/139/89 140/140/90 111/111/61
f 111/111/61 140/140/90 113/113/63
f 140/140/90 141/141/91 113/113/63
f 113/113/63 141/141/91 115/115/65
f 141/141/91 142/142/92 115/115/65
f 115/115/65 142/142/92 117/117/67
f 142/142/92 143/143/93 117/117/67
f 117/117/67 143/143/93 119/119/69
f 143/143/93 144/144/94 119/119/69
f 119/119/69 144/144/94 121/121/71
f 144/144/94 145/145/95 121/121/71
f 121/121/71 145/145/95 123/123/73
f 145/145/95 146/146/96 123/123/73
f 123/123/73 146/146/96 125/125/75
f 146/146/96 147/147/97 125/125/75
f 125/125/75 147/147/97 127/127/77
f 147/147/97 148/148/98 127/127/77
f 127/127/77 148/148/98 129/129/79
f 148/148/98 149/149/99 129/129/79
f 129/129/79 149/149/99 131/131/81
f 100/101/51 102/102/52 150/150/100
f 150/150/100 102/102/52 151/151/101
f 102/102/52 104/104/54 151/151/101
f 151/151/101 104/104/54 152/152/102
f 104/104/54 106/106/56 152/152/102
f 152/152/102 106/106/56 153/153/103
f 106/106/56 108/108/58 153/153/103
f 153/153/103 108/108/58 154/154/104
f 108/108/58 110/110/60 154/154/104
f 154/154/104 110/110/60 155/155/105
f 110/110/60 112/112/62 155/155/105
f 155/155/105 112/112/62 156/156/106
f 112/112/62 114/114/64 156/156/106
f 156/156/106 114/114/64 157/157/107
f 114/114/64 116/116/66 157/157/107
f 157/157/107 116/116/66 158/158/108
f 116/116/66 118/118/68 158/158/108
f 158/158/108 118/118/68 159/159/109
f 118/118/68 120/120/70 159/159/109
f 159/159/109 120/120/70 160/160/110
f 120/120/70 122/122/72 160/160/110
f 160/160/110 122/122/72 161/161/111
f 122/122/72 124/124/74 161/161/111
f 161/161/111 124/124/74 162/162/112
f 124/124/74 126/126/76 162/162/112
f 162/162/112 126/126/76 163/163/113
f 126/126/76 128/128/78 163/163/113
f 163/163/113 128/128/78 164/164/114
f 128/128/78 130/130/80 164/164/114
f 164/164/114 130/130/80 165/165/115
f 130/130/80 132/132/82 165/165/115
f 165/165/115 132/132/82 166/166/116
